<svg viewBox="0 0 24 24" fill="none" xmlns="http://www.w3.org/2000/svg">
  <path d="M15.8541 6.31109H9.12939L9.13222 2.93359L9.12939 0H15.8588V6.31109H15.8541Z" fill="#E15028"/>
  <path d="M15.856 6.31109V0H19.2202L19.2169 6.08437V6.31109H15.856Z" fill="#74C7E9"/>
  <path d="M9.12997 0L9.13374 2.93359L9.13091 6.31109H5.74268V0H9.12997Z" fill="#74C7E9"/>
  <path d="M4.70581 0V6.31062H4.0291V6.10346V0.204292L4.02393 0H4.70581Z" fill="#2A6076"/>
  <path d="M20.9109 0L20.9062 4.17653V6.12016V6.31109H20.2285V0H20.9109Z" fill="#2A6076"/>
  <path d="M4.62165 10.8802V8.76566H12.296C12.5032 8.76188 12.7103 8.77867 12.9144 8.81578C13.1892 8.8398 13.4454 8.96703 13.6326 9.17257C13.8198 9.3781 13.9247 9.64714 13.9266 9.92698C13.9465 10.1134 13.9554 10.3008 13.9534 10.4883C13.9515 11.4938 13.9515 12.4996 13.9534 13.5054C13.9541 13.6761 13.937 13.8463 13.9026 14.0133C13.8584 14.2881 13.7252 14.5401 13.524 14.7295C13.3227 14.9189 13.065 15.0349 12.7915 15.0591C12.6473 15.0789 12.5018 15.0888 12.3562 15.0887C10.6819 15.0906 9.0069 15.0906 7.3313 15.0887C7.25835 15.0887 7.18541 15.0887 7.112 15.0949C7.05815 15.0938 7.00464 15.1037 6.95462 15.1239C6.9046 15.1442 6.8591 15.1744 6.82079 15.2128C6.78249 15.2512 6.75217 15.297 6.73163 15.3475C6.71108 15.398 6.70073 15.4522 6.70118 15.5068C6.68989 16.0562 6.69788 16.6046 6.69788 17.1703H13.9407V19.28H4.616V14.5355C4.61254 14.3195 4.6411 14.1042 4.70071 13.8968C4.77926 13.6332 4.93943 13.4022 5.15751 13.2381C5.37559 13.074 5.63998 12.9854 5.91153 12.9856C6.03436 12.9756 6.15765 12.9742 6.28094 12.9742H11.3073C11.7261 12.9742 11.8772 12.8233 11.8772 12.4014C11.8772 12.0716 11.8772 11.7422 11.8772 11.4129C11.8734 11.0616 11.7388 10.9165 11.3981 10.8878C11.3369 10.8826 11.2748 10.8816 11.2136 10.8816H4.62165V10.8802Z" fill="#2A6076"/>
  <path d="M23.5245 14.0435C23.6745 14.0705 23.8082 14.1559 23.897 14.2814C23.9858 14.407 24.0227 14.5628 23.9998 14.7156C23.9834 15.7093 23.9942 16.7041 23.9942 17.6983C23.9929 18.1167 23.8292 18.5178 23.5385 18.8147C23.2479 19.1116 22.8537 19.2805 22.4412 19.2849H14.6709V17.1714H21.4516C21.5123 17.1781 21.5738 17.1713 21.6316 17.1514C21.6895 17.1315 21.7424 17.099 21.7866 17.0562C21.8308 17.0135 21.8652 16.9614 21.8875 16.9037C21.9098 16.846 21.9194 16.784 21.9156 16.7222C21.9285 16.3308 21.9285 15.9389 21.9156 15.5466C21.919 15.4847 21.9094 15.4229 21.8872 15.3652C21.8651 15.3075 21.8311 15.2552 21.7874 15.212C21.7437 15.1688 21.6913 15.1355 21.6339 15.1145C21.5765 15.0935 21.5153 15.0852 21.4544 15.0902C21.3871 15.0864 21.3198 15.0874 21.253 15.0874H14.6723V12.971H21.341C21.7744 12.971 21.9175 12.8278 21.9184 12.3929V11.4555C21.9288 11.3771 21.9213 11.2974 21.8966 11.2225C21.8718 11.1475 21.8304 11.0793 21.7756 11.0231C21.7208 10.9669 21.654 10.9242 21.5804 10.8983C21.5067 10.8724 21.4283 10.8639 21.3509 10.8736C21.1043 10.8698 20.8577 10.8736 20.6116 10.8736H14.6714V8.77343C14.7243 8.75091 14.7825 8.74445 14.8389 8.75481H22.3518C22.7193 8.73125 23.0831 8.84133 23.3778 9.06527C23.6725 9.28922 23.8789 9.61238 23.9598 9.97674C23.9839 10.0819 23.9955 10.1896 23.9942 10.2975V13.4678C23.9961 13.7795 23.8003 13.9184 23.5245 14.0435Z" fill="#2A6076"/>
  <path d="M3.62824 19.2811H1.56471V10.8932H0C0.0997647 10.7543 1.57129 8.75956 1.57129 8.75956C2.20424 8.7629 3.59812 8.75431 3.62824 8.75956V19.2811Z" fill="#2A6076"/>
  <path d="M17.3628 23.903H16.3868V22.3226H16.1101V23.901H15.1304V20.103H16.1021V21.46H16.3807V20.1035C16.7172 20.1035 17.0344 20.1064 17.3628 20.1064V23.903Z" fill="#2A6076"/>
  <path d="M4.86475 20.1011H5.8351V21.4519H6.11745V20.1035H7.10004V23.902H6.12592V22.3192H5.83886V23.9024H4.86475V20.1011Z" fill="#2A6076"/>
  <path d="M19.001 20.1035H19.9855V20.1756C19.9855 21.0825 19.9968 21.9856 19.978 22.8906C19.961 23.7168 19.4707 24.1072 18.6561 23.9746C18.4872 23.9639 18.3238 23.9102 18.1809 23.8185C18.038 23.7267 17.9203 23.5998 17.8387 23.4495C17.7696 23.2866 17.7396 23.1095 17.7511 22.9326C17.7445 22.0109 17.7422 20.1078 17.7422 20.1078H18.7304V22.9493C18.7304 23.0237 18.7351 23.0972 18.7384 23.1717C18.7422 23.2576 18.7615 23.3402 18.8655 23.3369C18.9558 23.334 18.9803 23.26 18.9836 23.1784C18.9878 23.0829 18.9977 22.9875 18.9977 22.8891V20.2758L19.001 20.1035Z" fill="#2A6076"/>
  <path d="M9.22357 21.9266C9.37317 21.9677 9.50236 22.0638 9.58603 22.1961C9.6697 22.3284 9.70187 22.4876 9.67628 22.6426C9.67251 23.0574 9.67628 23.4722 9.67628 23.8994H8.7558V22.4221C8.7558 22.2269 8.69604 22.2025 8.47345 22.2054V23.8999H7.49463V20.1014C7.49463 20.1014 8.6711 20.0866 9.12239 20.1424C9.26108 20.168 9.38736 20.2399 9.48115 20.3466C9.57494 20.4533 9.63087 20.5888 9.64004 20.7314C9.68946 20.9956 9.69122 21.2666 9.64522 21.5314C9.62823 21.6355 9.57756 21.7308 9.50121 21.8024C9.42485 21.8739 9.32716 21.9177 9.22357 21.9266ZM8.47627 20.7591V21.5858C8.70027 21.582 8.73463 21.5558 8.75298 21.3539C8.76297 21.2409 8.76486 21.1273 8.75863 21.014C8.74875 20.8121 8.69604 20.7668 8.47627 20.7606V20.7591Z" fill="#2A6076"/>
  <path d="M4.69225 23.9064H3.68943C3.67107 23.684 3.65319 23.4697 3.63437 23.2453L3.2899 23.2425C3.27107 23.4592 3.25225 23.6721 3.23248 23.9012H2.22119C2.3859 22.6391 2.5506 21.38 2.71578 20.1089H4.13413L4.69225 23.9064ZM3.60284 22.5389C3.55907 22.0396 3.51531 21.5552 3.46543 21.0277C3.38449 21.5556 3.33131 22.0425 3.28754 22.5389H3.60284Z" fill="#2A6076"/>
  <path d="M14.76 21.7557H13.7958V21.1238C13.7958 21.0159 13.7925 20.9071 13.7817 20.8001C13.7817 20.7648 13.7678 20.7309 13.7432 20.706C13.7186 20.681 13.6852 20.667 13.6504 20.667H13.6344C13.5975 20.6618 13.5602 20.6716 13.5304 20.6942C13.5006 20.7168 13.4808 20.7504 13.4753 20.7877C13.4636 20.8433 13.4573 20.8999 13.4565 20.9567C13.4565 21.6512 13.4532 22.3452 13.4565 23.0397C13.4565 23.1652 13.4372 23.3347 13.6273 23.3318C13.8024 23.3285 13.7845 23.1652 13.7892 23.0454C13.7972 22.8306 13.7892 22.6158 13.7892 22.3877H14.7718C14.8034 22.7244 14.7737 23.0642 14.6843 23.3901C14.6255 23.5329 14.5323 23.6585 14.4132 23.7554C14.2942 23.8523 14.1531 23.9174 14.0029 23.9447C13.7014 24.0227 13.384 24.0086 13.0904 23.9041C12.9378 23.8604 12.8014 23.7717 12.6986 23.6493C12.5958 23.5268 12.5312 23.3761 12.513 23.2163C12.4929 23.1044 12.4811 22.9911 12.4777 22.8774C12.4749 22.2459 12.4687 21.6135 12.481 20.9825C12.4769 20.7635 12.5495 20.5502 12.6859 20.3805C12.8223 20.2107 13.0137 20.0956 13.2259 20.0555C13.4613 19.9969 13.7065 19.9917 13.944 20.0402C14.1627 20.0593 14.3666 20.1601 14.5161 20.3231C14.6656 20.4861 14.75 20.6997 14.753 20.9223C14.7696 21.1998 14.772 21.478 14.76 21.7557Z" fill="#2A6076"/>
  <path d="M9.99536 22.5436H10.9059C10.9059 22.713 10.8975 22.881 10.9088 23.0481C10.9168 23.1641 10.8876 23.3192 11.0697 23.3345C11.1897 23.3455 11.2551 23.229 11.2641 23.029C11.2802 22.9071 11.2598 22.7831 11.2055 22.6731C11.1512 22.5631 11.0655 22.4722 10.9596 22.4123C10.7906 22.3126 10.6396 22.1808 10.4716 22.0782C10.2956 21.9692 10.1541 21.8113 10.0639 21.6233C9.97362 21.4352 9.93841 21.2249 9.96241 21.0171C9.97276 20.3818 10.2109 20.0391 11.0001 20.0119C11.208 20.0024 11.4158 20.0341 11.6118 20.105C11.7541 20.1453 11.8794 20.2319 11.9685 20.3514C12.0575 20.4709 12.1055 20.6167 12.105 20.7665C12.1107 20.9197 12.105 21.0734 12.105 21.2405H11.2001V20.8806C11.2001 20.7851 11.2001 20.672 11.0589 20.6701C10.9177 20.6682 10.9012 20.7723 10.8885 20.8801C10.8657 20.9895 10.8791 21.1035 10.9267 21.2044C10.9742 21.3053 11.0533 21.3875 11.1516 21.4381C11.3834 21.5667 11.6038 21.7154 11.8104 21.8825C11.9616 21.9936 12.0726 22.1521 12.1262 22.3336C12.2169 22.6823 12.2245 23.048 12.1483 23.4004C12.1277 23.4926 12.086 23.5787 12.0267 23.6518C11.9674 23.7248 11.892 23.7827 11.8067 23.8209C11.5949 23.9346 11.3592 23.9948 11.1196 23.9966C10.88 23.9983 10.6435 23.9415 10.4302 23.8309C10.3196 23.7789 10.2241 23.6989 10.1529 23.5986C10.0816 23.4982 10.0371 23.381 10.0236 23.2581C9.9884 23.0217 9.97893 22.7821 9.99536 22.5436Z" fill="#2A6076"/>
  <path d="M22.1611 20.1006H23.7847V20.8695H23.1447V21.5726H23.7376V22.3139H23.1498V23.1334H23.8449V23.9005H22.1611V20.1006Z" fill="#2A6076"/>
  <path d="M0.657227 20.1001H2.29393V20.8638H1.63887V21.575H2.22711V22.3086H1.63181V23.901H0.657227V20.1001Z" fill="#2A6076"/>
  <path d="M21.9133 23.9058H20.3604V20.1045H21.3331V23.1326H21.9147L21.9133 23.9058Z" fill="#2A6076"/>
</svg>
